<svg width="681" height="817" viewBox="0 0 681 817" fill="none" xmlns="http://www.w3.org/2000/svg">
<g filter="url(#filter0_d_11_190)">
<path d="M104.577 255.782L19.6048 79.3827C19.6048 79.3827 13.3383 66.4905 10.3668 57.8276C8.02639 51.0048 6.36479 47.1849 5.40767 40.0356C4.47245 33.0498 3.77889 28.8344 5.45212 21.9878C7.03392 15.5154 8.12672 11.1806 13.0834 6.72849C16.3234 3.81831 18.7575 2.75034 22.9235 1.48132C29.2647 -0.450312 33.3014 0.865471 39.8975 1.52313C49.8415 2.51459 55.3682 4.22114 64.7181 7.74913C74.3829 11.3959 88.1838 19.958 88.1838 19.958L632.097 336.152C632.097 336.152 651.44 351.339 660.527 363.92C664.536 369.469 666.772 372.671 669.692 378.863C673.628 387.208 675.396 392.325 676.515 401.484L676.655 403.986C673.516 382.058 654.826 366.586 632.022 366.53C606.958 366.468 586.588 387.019 586.525 412.431L586.48 428.513C586.038 453.101 565.939 472.867 541.261 472.806C516.345 472.745 496.196 452.495 496.257 427.576L496.464 343.413C496.526 318.494 476.577 298.244 451.907 298.183C427.237 298.122 407.189 318.274 407.127 343.193L407.232 443.618C406.793 468.206 386.893 487.972 362.459 487.912C337.79 487.851 317.84 467.601 317.902 442.683L318.276 290.796C318.337 265.877 298.108 245.626 273.093 245.565C248.078 245.503 227.75 265.654 227.688 290.573L227.399 405.649C226.962 430.237 207.141 450.004 182.805 449.944C159.932 449.888 141.211 432.336 138.771 409.809C139.335 383.096 138.705 372.876 134.192 346.541C127.895 309.794 104.577 255.782 104.577 255.782Z" fill="url(#paint0_linear_11_190)"/>
</g>
<path d="M129.186 492.966C136.233 463.04 138.123 440.547 138.772 409.809C141.211 432.336 159.932 449.888 182.806 449.944C207.141 450.004 226.962 430.237 227.399 405.649L227.688 290.573C227.75 265.654 248.078 245.503 273.093 245.565C298.108 245.626 318.338 265.877 318.276 290.796L317.902 442.683C317.841 467.601 337.79 487.851 362.459 487.912C386.893 487.972 406.793 468.206 407.232 443.617L407.127 343.193C407.189 318.274 427.237 298.122 451.907 298.183C476.577 298.244 496.526 318.494 496.465 343.413L496.257 427.576C496.196 452.495 516.345 472.745 541.261 472.806C565.939 472.867 586.038 453.101 586.48 428.513L586.526 412.431C586.588 387.018 606.958 366.468 632.022 366.53C657.087 366.591 677.181 385.276 677.118 410.688L676.473 418.638C675.304 427.724 673.464 432.77 669.539 441.047C663.883 452.977 658.435 458.639 649.104 467.979C641.332 475.758 627.084 485.526 627.084 485.526L93.3378 792.901C93.3378 792.901 74.7253 805.185 39.8633 813.408C25.2815 816.848 13.2889 815.363 6.21075 802.157C1.31966 793.032 4.30189 779.191 5.30045 772.76C6.299 766.33 17.3594 737.141 17.3594 737.141L112.53 545.282C112.53 545.282 124.272 513.837 129.186 492.966Z" fill="#2C1F71"/>
<ellipse cx="452.258" cy="228.584" rx="44.49" ry="45.1195" transform="rotate(0.141128 452.258 228.584)" fill="#2C1F71"/>
<path d="M228.549 158.879C228.488 183.798 248.357 204.047 272.928 204.108C297.264 204.168 317.085 184.401 317.522 159.813L317.759 65.643C317.821 40.7242 297.952 20.4746 273.381 20.414C248.809 20.3535 228.841 40.5051 228.779 65.4238L228.549 158.879Z" fill="#2C1F71"/>
<defs>
<filter id="filter0_d_11_190" x="0.4375" y="0.471436" width="680.217" height="495.441" filterUnits="userSpaceOnUse" color-interpolation-filters="sRGB">
<feFlood flood-opacity="0" result="BackgroundImageFix"/>
<feColorMatrix in="SourceAlpha" type="matrix" values="0 0 0 0 0 0 0 0 0 0 0 0 0 0 0 0 0 0 127 0" result="hardAlpha"/>
<feOffset dy="4"/>
<feGaussianBlur stdDeviation="2"/>
<feComposite in2="hardAlpha" operator="out"/>
<feColorMatrix type="matrix" values="0 0 0 0 0 0 0 0 0 0 0 0 0 0 0 0 0 0 0.25 0"/>
<feBlend mode="normal" in2="BackgroundImageFix" result="effect1_dropShadow_11_190"/>
<feBlend mode="normal" in="SourceGraphic" in2="effect1_dropShadow_11_190" result="shape"/>
</filter>
<linearGradient id="paint0_linear_11_190" x1="341.317" y1="1.23928" x2="340.119" y2="487.857" gradientUnits="userSpaceOnUse">
<stop stop-color="#8E2E93"/>
<stop offset="1" stop-color="#29ABE2"/>
</linearGradient>
</defs>
</svg>
