<svg width="681" height="1053" viewBox="0 0 681 1053" fill="none" xmlns="http://www.w3.org/2000/svg">
<g filter="url(#filter0_d_11_191)">
<path d="M104.577 255.782L19.6048 79.3827C19.6048 79.3827 13.3383 66.4905 10.3668 57.8276C8.02639 51.0048 6.36479 47.1849 5.40767 40.0356C4.47245 33.0498 3.77889 28.8344 5.45212 21.9878C7.03392 15.5154 8.12672 11.1806 13.0834 6.72849C16.3234 3.81831 18.7575 2.75034 22.9235 1.48132C29.2647 -0.450312 33.3014 0.865471 39.8975 1.52313C49.8415 2.51459 55.3682 4.22114 64.7181 7.74913C74.3829 11.3959 88.1838 19.958 88.1838 19.958L632.097 336.152C632.097 336.152 651.44 351.339 660.527 363.92C664.536 369.469 666.772 372.671 669.692 378.863C673.628 387.208 675.396 392.325 676.515 401.484L676.655 403.986C673.516 382.058 654.826 366.586 632.022 366.53C606.958 366.468 586.588 387.019 586.525 412.431L586.48 428.513C586.038 453.101 565.939 472.867 541.261 472.806C516.345 472.745 496.196 452.495 496.257 427.576L496.464 343.413C496.526 318.494 476.577 298.244 451.907 298.183C427.237 298.122 407.189 318.274 407.127 343.193L407.232 443.618C406.793 468.206 386.893 487.972 362.459 487.912C337.79 487.851 317.84 467.601 317.902 442.683L318.276 290.796C318.337 265.877 298.108 245.626 273.093 245.565C248.078 245.503 227.75 265.654 227.688 290.573L227.399 405.649C226.962 430.237 207.141 450.004 182.805 449.944C159.932 449.888 141.211 432.336 138.771 409.809C139.335 383.096 138.705 372.876 134.192 346.541C127.895 309.794 104.577 255.782 104.577 255.782Z" fill="url(#paint0_linear_11_191)"/>
</g>
<path d="M129.186 492.966C136.233 463.04 138.123 440.547 138.772 409.809C141.211 432.336 159.932 449.888 182.806 449.944C207.141 450.004 226.962 430.237 227.399 405.649L227.688 290.573C227.75 265.654 248.078 245.503 273.093 245.565C298.108 245.626 318.338 265.877 318.276 290.796L317.902 442.683C317.841 467.601 337.79 487.851 362.459 487.912C386.893 487.972 406.793 468.206 407.232 443.617L407.127 343.193C407.189 318.274 427.237 298.122 451.907 298.183C476.577 298.244 496.526 318.494 496.465 343.413L496.257 427.576C496.196 452.495 516.345 472.745 541.261 472.806C565.939 472.867 586.038 453.101 586.48 428.513L586.526 412.431C586.588 387.018 606.958 366.468 632.022 366.53C657.087 366.591 677.181 385.276 677.118 410.688L676.473 418.638C675.304 427.724 673.464 432.77 669.539 441.047C663.883 452.977 658.435 458.639 649.104 467.979C641.332 475.758 627.084 485.526 627.084 485.526L93.3378 792.901C93.3378 792.901 74.7253 805.185 39.8633 813.408C25.2815 816.848 13.2889 815.363 6.21075 802.157C1.31966 793.032 4.30189 779.191 5.30045 772.76C6.299 766.33 17.3594 737.141 17.3594 737.141L112.53 545.282C112.53 545.282 124.272 513.837 129.186 492.966Z" fill="#2C1F71"/>
<ellipse cx="452.258" cy="228.584" rx="44.49" ry="45.1195" transform="rotate(0.141128 452.258 228.584)" fill="#2C1F71"/>
<path d="M228.549 158.879C228.488 183.798 248.357 204.047 272.928 204.108C297.264 204.168 317.085 184.401 317.522 159.813L317.759 65.643C317.821 40.7242 297.952 20.4746 273.381 20.414C248.809 20.3535 228.841 40.5051 228.779 65.4238L228.549 158.879Z" fill="#2C1F71"/>
<path d="M59 1052.05L18.75 958.075C17.5833 955.158 16.475 952.125 15.425 948.975C14.375 945.825 13.85 943.317 13.85 941.45C11.9833 941.567 10.2333 941.683 8.6 941.8C7.08333 941.8 5.68333 941.858 4.4 941.975V928.5H56.025V940.05C51.7083 939.933 48.3833 940.867 46.05 942.85C43.8333 944.833 43.775 948.392 45.875 953.525C48.5583 960.058 51.2417 966.65 53.925 973.3C56.6083 979.95 59.2917 986.542 61.975 993.075C63.9583 997.975 65.65 1002.29 67.05 1006.03C68.45 1009.64 70.0833 1013.67 71.95 1018.1H72.125C73.4083 1014.6 74.75 1010.69 76.15 1006.37C77.6667 1002.06 79.125 997.917 80.525 993.95C82.0417 989.867 83.5 985.783 84.9 981.7C86.4167 977.617 87.9333 973.592 89.45 969.625C90.9667 965.542 92.425 961.458 93.825 957.375C94.4083 955.392 95.3417 952.708 96.625 949.325C98.025 945.942 99.4833 943.317 101 941.45C99.1333 941.567 96.7417 941.683 93.825 941.8C90.9083 941.8 88.8083 941.858 87.525 941.975V928.5H126.9V940.05C122.933 940.167 119.492 941.625 116.575 944.425C113.658 947.225 110.917 952.008 108.35 958.775C106.367 963.908 104.383 969.1 102.4 974.35C100.533 979.483 98.6083 984.675 96.625 989.925C94.7583 995.058 92.8333 1000.25 90.85 1005.5C88.8667 1010.63 86.8833 1015.82 84.9 1021.07C83.0333 1026.21 81.1083 1031.34 79.125 1036.47C77.2583 1041.61 75.3333 1046.8 73.35 1052.05H59ZM212.126 940.05C209.56 940.167 207.343 940.517 205.476 941.1C203.61 941.683 202.151 943.025 201.101 945.125C200.168 947.108 199.701 950.492 199.701 955.275V1022.3C199.701 1025.45 199.643 1028.48 199.526 1031.4C199.41 1034.32 199.235 1036.53 199.001 1038.05C200.868 1037.82 203.201 1037.7 206.001 1037.7C208.918 1037.58 210.96 1037.52 212.126 1037.52V1051H161.901V1039.45C164.585 1039.33 166.801 1038.98 168.551 1038.4C170.418 1037.82 171.818 1036.47 172.751 1034.37C173.801 1032.27 174.326 1028.89 174.326 1024.22V957.2C174.326 954.05 174.385 951.017 174.501 948.1C174.735 945.183 174.91 942.967 175.026 941.45C173.16 941.567 170.826 941.683 168.026 941.8C165.226 941.8 163.185 941.858 161.901 941.975V928.5H212.126V940.05ZM255.827 1039.45C258.51 1039.33 260.727 1038.98 262.477 1038.4C264.344 1037.82 265.744 1036.47 266.677 1034.37C267.727 1032.27 268.252 1028.89 268.252 1024.22V957.2C268.252 954.05 268.31 951.017 268.427 948.1C268.66 945.183 268.835 942.967 268.952 941.45C267.085 941.567 264.752 941.683 261.952 941.8C259.152 941.8 257.11 941.858 255.827 941.975V928.5L306.752 928.325C318.302 928.325 328.277 930.075 336.677 933.575C345.194 936.958 352.135 941.567 357.502 947.4C362.985 953.233 367.069 959.767 369.752 967C372.435 974.117 373.777 981.292 373.777 988.525C373.777 995.642 372.494 1002.87 369.927 1010.22C367.477 1017.57 363.569 1024.34 358.202 1030.52C352.835 1036.59 345.835 1041.55 337.202 1045.4C328.569 1049.13 318.127 1051 305.877 1051H255.827V1039.45ZM293.627 1022.3C293.627 1025.45 293.569 1028.48 293.452 1031.4C293.335 1034.32 293.16 1036.53 292.927 1038.05C294.094 1037.93 295.669 1037.93 297.652 1038.05C299.752 1038.05 301.91 1038.11 304.127 1038.22C306.344 1038.22 308.152 1038.22 309.552 1038.22C315.969 1038.22 321.452 1036.94 326.002 1034.37C330.669 1031.81 334.46 1028.37 337.377 1024.05C340.41 1019.62 342.627 1014.66 344.027 1009.17C345.427 1003.69 346.127 998.033 346.127 992.2C346.127 980.3 344.494 970.558 341.227 962.975C337.96 955.392 333.352 949.733 327.402 946C321.569 942.267 314.569 940.283 306.402 940.05C303.602 939.933 301.21 940.225 299.227 940.925C297.36 941.508 295.96 942.85 295.027 944.95C294.094 947.05 293.627 950.375 293.627 954.925V1022.3ZM402.03 1051V1038.92C405.297 1038.92 407.922 1037.99 409.905 1036.12C411.888 1034.26 413.522 1031.81 414.805 1028.77C416.205 1025.74 417.547 1022.47 418.83 1018.97L452.955 925.35H465.205L502.48 1020.72C503.18 1022.47 504.113 1025.16 505.28 1028.77C506.447 1032.27 507.147 1035.37 507.38 1038.05C509.363 1037.82 511.23 1037.7 512.98 1037.7C514.847 1037.58 516.363 1037.52 517.53 1037.52V1051H470.455V1039.45C473.722 1039.45 475.938 1038.81 477.105 1037.52C478.388 1036.12 478.972 1034.26 478.855 1031.92C478.738 1029.59 478.097 1026.97 476.93 1024.05L473.43 1014.42L435.455 1015.12L432.655 1023.35C432.072 1024.87 431.197 1027.14 430.03 1030.17C428.98 1033.09 427.988 1035.54 427.055 1037.52C428.922 1037.29 431.138 1037.17 433.705 1037.17C436.388 1037.06 438.313 1037 439.48 1037V1051H402.03ZM439.83 1002H469.055L461.005 980.125C459.488 975.925 458.147 971.725 456.98 967.525C455.813 963.208 454.938 959.417 454.355 956.15H454.18C453.713 958.133 453.013 961.108 452.08 965.075C451.147 969.042 449.688 973.767 447.705 979.25L439.83 1002ZM549.276 1051V1038.92C552.543 1038.92 555.168 1037.99 557.151 1036.12C559.135 1034.26 560.768 1031.81 562.051 1028.77C563.451 1025.74 564.793 1022.47 566.076 1018.97L600.201 925.35H612.451L649.726 1020.72C650.426 1022.47 651.36 1025.16 652.526 1028.77C653.693 1032.27 654.393 1035.37 654.626 1038.05C656.61 1037.82 658.476 1037.7 660.226 1037.7C662.093 1037.58 663.61 1037.52 664.776 1037.52V1051H617.701V1039.45C620.968 1039.45 623.185 1038.81 624.351 1037.52C625.635 1036.12 626.218 1034.26 626.101 1031.92C625.985 1029.59 625.343 1026.97 624.176 1024.05L620.676 1014.42L582.701 1015.12L579.901 1023.35C579.318 1024.87 578.443 1027.14 577.276 1030.17C576.226 1033.09 575.235 1035.54 574.301 1037.52C576.168 1037.29 578.385 1037.17 580.951 1037.17C583.635 1037.06 585.56 1037 586.726 1037V1051H549.276ZM587.076 1002H616.301L608.251 980.125C606.735 975.925 605.393 971.725 604.226 967.525C603.06 963.208 602.185 959.417 601.601 956.15H601.426C600.96 958.133 600.26 961.108 599.326 965.075C598.393 969.042 596.935 973.767 594.951 979.25L587.076 1002Z" fill="black"/>
<defs>
<filter id="filter0_d_11_191" x="0.4375" y="0.471436" width="680.217" height="495.441" filterUnits="userSpaceOnUse" color-interpolation-filters="sRGB">
<feFlood flood-opacity="0" result="BackgroundImageFix"/>
<feColorMatrix in="SourceAlpha" type="matrix" values="0 0 0 0 0 0 0 0 0 0 0 0 0 0 0 0 0 0 127 0" result="hardAlpha"/>
<feOffset dy="4"/>
<feGaussianBlur stdDeviation="2"/>
<feComposite in2="hardAlpha" operator="out"/>
<feColorMatrix type="matrix" values="0 0 0 0 0 0 0 0 0 0 0 0 0 0 0 0 0 0 0.25 0"/>
<feBlend mode="normal" in2="BackgroundImageFix" result="effect1_dropShadow_11_191"/>
<feBlend mode="normal" in="SourceGraphic" in2="effect1_dropShadow_11_191" result="shape"/>
</filter>
<linearGradient id="paint0_linear_11_191" x1="341.317" y1="1.23928" x2="340.119" y2="487.857" gradientUnits="userSpaceOnUse">
<stop stop-color="#8E2E93"/>
<stop offset="1" stop-color="#29ABE2"/>
</linearGradient>
</defs>
</svg>
